<svg xmlns="http://www.w3.org/2000/svg" viewBox="0 0 644 164" width="644" height="164"><defs><linearGradient id="wg" gradientUnits="userSpaceOnUse" x1="261.24" y1="60" x2="622.04" y2="60"><stop offset="0" stop-color="#FF2D72"/><stop offset="0.5" stop-color="#FF5A33"/><stop offset="1" stop-color="#FF9500"/></linearGradient></defs><rect width="644" height="164" fill="#0B0D17"/><g transform="translate(16.00,-7.00) scale(1.0)"><g transform="translate(0,120) skewX(-8)"><g fill="#FFFFFF"><path transform="translate(0.000,0) scale(0.12000,-0.12000)" d="M240 194V354H360Q394 354 419.0 367.5Q444 381 458.0 406.0Q472 431 472 465Q472 500 458.0 525.0Q444 550 419.0 563.0Q394 576 360 576H240V736H355Q449 736 517.5 704.5Q586 673 623.0 614.0Q660 555 660 473V457Q660 376 623.0 317.0Q586 258 517.5 226.0Q449 194 355 194ZM74 0V736H260V0Z"/>
<path transform="translate(81.120,0) scale(0.12000,-0.12000)" d="M74 0V730H256V0ZM12 598V730H256V598Z"/>
<path transform="translate(120.000,0) scale(0.12000,-0.12000)" d="M400 0V162H370V335Q370 373 352.5 391.5Q335 410 295 410Q276 410 239.0 409.0Q202 408 161.0 406.0Q120 404 86 402V554Q110 556 143.0 558.0Q176 560 211.5 561.0Q247 562 277 562Q362 562 421.5 537.0Q481 512 512.5 462.0Q544 412 544 335V0ZM225 -14Q167 -14 122.0 7.0Q77 28 51.5 67.5Q26 107 26 162Q26 224 59.0 262.5Q92 301 150.0 319.0Q208 337 283 337H390V243H283Q246 243 226.0 224.5Q206 206 206 175Q206 145 226.0 126.5Q246 108 283 108Q307 108 325.5 116.5Q344 125 356.0 146.0Q368 167 370 204L412 164Q407 107 384.5 67.5Q362 28 322.5 7.0Q283 -14 225 -14Z"/>
<path transform="translate(192.000,0) scale(0.12000,-0.12000)" d="M70 -220V-68H197Q220 -68 236.0 -62.0Q252 -56 262.0 -42.5Q272 -29 277 -5L401 552H573L428 -40Q412 -108 383.5 -147.5Q355 -187 305.5 -203.5Q256 -220 177 -220ZM245 12V152H361V12ZM161 12 0 552H182L333 12Z"/></g><g fill="url(#wg)"><path transform="translate(261.240,0) scale(0.12000,-0.12000)" d="M240 194V354H360Q394 354 419.0 367.5Q444 381 458.0 406.0Q472 431 472 465Q472 500 458.0 525.0Q444 550 419.0 563.0Q394 576 360 576H240V736H355Q449 736 517.5 704.5Q586 673 623.0 614.0Q660 555 660 473V457Q660 376 623.0 317.0Q586 258 517.5 226.0Q449 194 355 194ZM74 0V736H260V0Z"/>
<path transform="translate(342.360,0) scale(0.12000,-0.12000)" d="M251 -18Q157 -18 105.5 43.5Q54 105 54 232V552H236V227Q236 190 258.0 167.0Q280 144 317 144Q354 144 377.0 167.0Q400 190 400 229V552H582V0H438V232H448Q448 147 426.5 91.5Q405 36 363.0 9.0Q321 -18 259 -18Z"/>
<path transform="translate(420.360,0) scale(0.12000,-0.12000)" d="M74 0V730H256V0ZM12 598V730H256V598Z"/>
<path transform="translate(459.240,0) scale(0.12000,-0.12000)" d="M285 -18Q165 -18 96.0 31.5Q27 81 22 171H182Q186 146 213.0 128.0Q240 110 289 110Q324 110 349.5 120.5Q375 131 375 155Q375 176 355.0 189.5Q335 203 282 208L244 212Q138 223 88.0 270.0Q38 317 38 388Q38 449 68.0 488.5Q98 528 151.0 548.0Q204 568 272 568Q383 568 451.0 519.5Q519 471 523 380H363Q359 405 336.0 422.5Q313 440 270 440Q239 440 219.5 429.0Q200 418 200 398Q200 377 218.5 367.0Q237 357 278 352L316 348Q422 337 479.5 289.5Q537 242 537 165Q537 108 506.5 67.0Q476 26 419.5 4.0Q363 -18 285 -18Z"/>
<path transform="translate(526.680,0) scale(0.12000,-0.12000)" d="M325 -20Q255 -20 201.0 4.0Q147 28 110.0 69.0Q73 110 53.5 161.0Q34 212 34 266V286Q34 342 53.5 393.5Q73 445 109.5 485.0Q146 525 199.0 548.5Q252 572 319 572Q408 572 470.0 532.0Q532 492 565.0 426.5Q598 361 598 284V226H110V324H493L430 280Q430 327 417.5 359.5Q405 392 380.5 409.0Q356 426 319 426Q283 426 256.5 409.5Q230 393 216.0 359.5Q202 326 202 275Q202 229 215.0 195.5Q228 162 255.0 144.0Q282 126 325 126Q363 126 387.5 139.0Q412 152 422 174H588Q576 118 540.5 74.0Q505 30 450.5 5.0Q396 -20 325 -20Z"/></g></g></g></svg>